<?xml version="1.0" standalone="no"?>
<!DOCTYPE svg PUBLIC "-//W3C//DTD SVG 20010904//EN"
 "http://www.w3.org/TR/2001/REC-SVG-20010904/DTD/svg10.dtd">
<svg version="1.0" xmlns="http://www.w3.org/2000/svg"
 width="659.000000pt" height="659.000000pt" viewBox="0 0 659.000000 659.000000"
 preserveAspectRatio="xMidYMid meet">
<metadata>
Created by potrace 1.14, written by Peter Selinger 2001-2017
</metadata>
<g transform="translate(0.000000,659.000000) scale(0.100000,-0.100000)"
fill="#000000" stroke="none">
<path d="M6025 6277 c-11 -7 -22 -14 -25 -17 -3 -3 -27 -23 -55 -45 -27 -22
-55 -44 -61 -50 -6 -5 -31 -26 -54 -45 -102 -82 -176 -145 -193 -162 -10 -10
-21 -18 -25 -18 -16 0 -110 -97 -117 -120 -5 -14 -9 -45 -11 -70 -2 -25 -6
-91 -9 -147 -7 -99 -6 -104 19 -148 15 -25 23 -45 19 -45 -4 0 -29 -20 -55
-44 -26 -23 -75 -67 -108 -97 -34 -30 -72 -63 -84 -74 -13 -11 -56 -49 -96
-85 -41 -36 -101 -90 -135 -120 -33 -30 -94 -84 -135 -120 -41 -36 -92 -81
-115 -101 -22 -20 -55 -49 -74 -65 -18 -16 -45 -40 -60 -54 -15 -14 -62 -56
-106 -95 -44 -38 -100 -88 -125 -111 -25 -22 -58 -52 -74 -65 -15 -13 -43 -37
-61 -54 -17 -16 -47 -43 -66 -60 -19 -16 -54 -48 -79 -70 -25 -22 -77 -67
-114 -100 -38 -33 -74 -65 -80 -70 -28 -27 -248 -223 -296 -265 -53 -46 -245
-217 -289 -257 -25 -23 -50 -43 -56 -43 -5 0 -29 18 -52 40 -44 42 -136 96
-181 106 -15 3 -61 8 -104 11 -94 7 -189 -19 -269 -73 -57 -38 -128 -111 -129
-131 0 -6 -6 -18 -13 -25 -41 -41 -68 -214 -48 -309 33 -152 162 -295 304
-334 4 -2 8 -3 10 -5 17 -13 155 -20 211 -9 124 23 257 123 315 237 52 101 61
246 22 356 -12 33 -21 60 -21 61 0 1 53 49 118 106 64 57 133 118 152 136 19
17 44 40 56 50 56 48 142 124 165 145 44 39 90 81 179 158 47 41 92 82 101 90
14 13 121 109 185 165 42 37 99 87 139 124 22 20 78 70 125 111 47 41 90 80
96 85 37 34 161 144 186 165 17 14 45 38 63 55 17 16 65 59 106 95 40 36 94
83 119 106 25 22 63 56 84 75 22 19 47 41 56 49 8 8 73 66 142 128 117 103
148 125 148 104 0 -22 63 -42 151 -48 256 -15 258 -15 326 49 119 112 154 144
247 230 222 203 219 200 221 243 4 82 -52 134 -149 140 -85 4 -88 5 -113 34
-26 29 -25 22 -29 118 -3 72 -11 94 -52 143 -37 45 -104 61 -147 36z"/>
<path d="M2738 6115 c-1 -2 -34 -6 -73 -10 -38 -3 -81 -7 -95 -10 -14 -2 -45
-6 -70 -10 -594 -86 -1185 -383 -1616 -812 -90 -89 -127 -128 -206 -221 -154
-178 -337 -479 -441 -723 -75 -176 -154 -433 -181 -589 -3 -19 -8 -46 -11 -60
-3 -14 -8 -45 -11 -70 -3 -25 -8 -54 -10 -64 -18 -96 -25 -490 -11 -639 52
-561 257 -1087 593 -1523 91 -119 231 -274 324 -359 19 -18 53 -49 75 -69 72
-66 298 -232 406 -299 182 -112 428 -225 634 -291 137 -43 331 -90 425 -102
19 -3 62 -9 95 -14 153 -23 431 -31 611 -17 903 71 1728 556 2227 1308 79 119
93 143 162 274 111 207 236 562 270 765 3 19 8 42 10 50 4 15 10 54 21 135 3
22 7 51 10 65 23 120 22 548 -2 710 -45 302 -99 508 -199 752 -99 240 -137
288 -234 288 -75 0 -126 -33 -163 -104 -29 -57 -20 -118 40 -252 105 -235 174
-485 207 -744 16 -133 21 -377 10 -500 -3 -36 -8 -83 -10 -105 -14 -172 -102
-515 -174 -680 -5 -11 -17 -38 -26 -60 -57 -135 -176 -347 -254 -455 -191
-263 -381 -448 -686 -668 -43 -31 -199 -120 -284 -162 -249 -123 -466 -192
-776 -245 -167 -28 -607 -28 -748 1 -12 2 -49 9 -82 14 -422 67 -865 274
-1220 570 -158 132 -351 349 -481 541 -96 143 -226 390 -260 494 -2 6 -17 48
-34 95 -27 73 -53 156 -65 210 -1 8 -8 33 -13 55 -19 71 -51 277 -58 375 -12
155 -6 450 10 538 2 9 7 39 10 66 33 241 139 566 263 804 322 619 908 1102
1563 1290 90 26 123 34 185 48 115 25 239 43 348 51 557 40 1095 -88 1557
-372 52 -32 114 -69 137 -82 95 -54 211 -16 255 85 22 50 19 105 -9 153 -28
47 -267 197 -478 298 -252 121 -634 233 -880 256 -38 4 -79 10 -90 12 -22 6
-491 13 -497 8z"/>
<path d="M2897 4974 c-1 -1 -47 -5 -102 -8 -54 -4 -101 -9 -105 -11 -3 -1 -26
-6 -52 -9 -112 -15 -319 -80 -448 -140 -420 -196 -747 -544 -918 -976 -29 -72
-69 -200 -78 -244 -2 -12 -8 -43 -14 -71 -25 -127 -28 -161 -29 -335 -1 -165
3 -213 30 -355 130 -694 689 -1263 1390 -1414 196 -42 491 -49 674 -16 244 44
457 125 654 247 170 106 370 288 484 440 165 221 292 509 336 763 6 33 13 74
17 90 10 53 13 368 3 445 -23 184 -91 425 -132 468 -76 82 -216 63 -275 -36
-29 -50 -38 -125 -21 -170 13 -33 49 -170 54 -207 20 -125 23 -177 20 -300 -1
-77 -8 -160 -13 -185 -6 -25 -13 -61 -16 -80 -12 -73 -55 -205 -101 -305 -163
-354 -482 -637 -859 -760 -153 -50 -260 -68 -421 -69 -184 -1 -273 9 -410 48
-250 72 -444 185 -626 366 -172 170 -288 355 -358 570 -30 90 -42 143 -56 235
-3 22 -8 51 -10 65 -7 35 -7 243 1 310 54 513 399 973 881 1174 63 26 215 73
262 80 59 10 108 17 146 22 52 7 239 7 290 0 22 -3 60 -8 84 -11 77 -11 231
-54 315 -89 99 -41 132 -47 188 -33 146 36 191 225 74 305 -45 31 -232 105
-326 131 -152 40 -312 63 -463 65 -38 1 -69 0 -70 0z"/>
</g>
</svg>
